G04 #@! TF.GenerationSoftware,KiCad,Pcbnew,9.0.3*
G04 #@! TF.CreationDate,2025-10-28T13:13:55+10:00*
G04 #@! TF.ProjectId,prototype-mk1_panel,70726f74-6f74-4797-9065-2d6d6b315f70,rev?*
G04 #@! TF.SameCoordinates,Original*
G04 #@! TF.FileFunction,Paste,Bot*
G04 #@! TF.FilePolarity,Positive*
%FSLAX46Y46*%
G04 Gerber Fmt 4.6, Leading zero omitted, Abs format (unit mm)*
G04 Created by KiCad (PCBNEW 9.0.3) date 2025-10-28 13:13:55*
%MOMM*%
%LPD*%
G01*
G04 APERTURE LIST*
G04 Aperture macros list*
%AMRoundRect*
0 Rectangle with rounded corners*
0 $1 Rounding radius*
0 $2 $3 $4 $5 $6 $7 $8 $9 X,Y pos of 4 corners*
0 Add a 4 corners polygon primitive as box body*
4,1,4,$2,$3,$4,$5,$6,$7,$8,$9,$2,$3,0*
0 Add four circle primitives for the rounded corners*
1,1,$1+$1,$2,$3*
1,1,$1+$1,$4,$5*
1,1,$1+$1,$6,$7*
1,1,$1+$1,$8,$9*
0 Add four rect primitives between the rounded corners*
20,1,$1+$1,$2,$3,$4,$5,0*
20,1,$1+$1,$4,$5,$6,$7,0*
20,1,$1+$1,$6,$7,$8,$9,0*
20,1,$1+$1,$8,$9,$2,$3,0*%
G04 Aperture macros list end*
%ADD10RoundRect,0.250000X-1.025000X-1.000000X1.025000X-1.000000X1.025000X1.000000X-1.025000X1.000000X0*%
%ADD11RoundRect,0.250000X-1.391215X0.339330X-0.304881X-1.399169X1.391215X-0.339330X0.304881X1.399169X0*%
%ADD12RoundRect,0.250000X0.304881X-1.399169X1.391215X0.339330X-0.304881X1.399169X-1.391215X-0.339330X0*%
G04 APERTURE END LIST*
D10*
X329801511Y-84771219D03*
X342728511Y-82231219D03*
X103161992Y-97703240D03*
X116088992Y-95163240D03*
X329801511Y-46671219D03*
X342728511Y-44131219D03*
X46011992Y-46458740D03*
X58938992Y-43918740D03*
X122211992Y-98846240D03*
X135138992Y-96306240D03*
X141261992Y-44363240D03*
X154188992Y-41823240D03*
X46011992Y-84558740D03*
X58938992Y-82018740D03*
X93636992Y-119229740D03*
X106563992Y-116689740D03*
X141261992Y-63413240D03*
X154188992Y-60873240D03*
X103161992Y-59603240D03*
X116088992Y-57063240D03*
X272651511Y-40765719D03*
X285578511Y-38225719D03*
D11*
X224166495Y-117563707D03*
X233170804Y-127180430D03*
D10*
X234551511Y-101725719D03*
X247478511Y-99185719D03*
X310751511Y-83628219D03*
X323678511Y-81088219D03*
X122211992Y-41696240D03*
X135138992Y-39156240D03*
X84111992Y-98846240D03*
X97038992Y-96306240D03*
X103161992Y-40553240D03*
X116088992Y-38013240D03*
X329801511Y-103821219D03*
X342728511Y-101281219D03*
X46011992Y-65508740D03*
X58938992Y-62968740D03*
X263126511Y-119442219D03*
X276053511Y-116902219D03*
X310751511Y-102678219D03*
X323678511Y-100138219D03*
X84111992Y-79796240D03*
X97038992Y-77256240D03*
X291701511Y-99058719D03*
X304628511Y-96518719D03*
X234551511Y-63625719D03*
X247478511Y-61085719D03*
X65061992Y-64365740D03*
X77988992Y-61825740D03*
X103161992Y-78653240D03*
X116088992Y-76113240D03*
X122211992Y-60746240D03*
X135138992Y-58206240D03*
X253601511Y-99058719D03*
X266528511Y-96518719D03*
X65061992Y-45315740D03*
X77988992Y-42775740D03*
X46011992Y-103608740D03*
X58938992Y-101068740D03*
X272651511Y-78865719D03*
X285578511Y-76325719D03*
X141261992Y-101513240D03*
X154188992Y-98973240D03*
X282176511Y-119442219D03*
X295103511Y-116902219D03*
X310751511Y-64578219D03*
X323678511Y-62038219D03*
X291701511Y-60958719D03*
X304628511Y-58418719D03*
X253601511Y-41908719D03*
X266528511Y-39368719D03*
X253601511Y-80008719D03*
X266528511Y-77468719D03*
X84111992Y-41696240D03*
X97038992Y-39156240D03*
X272651511Y-59815719D03*
X285578511Y-57275719D03*
X112686992Y-119229740D03*
X125613992Y-116689740D03*
X244076511Y-120775719D03*
X257003511Y-118235719D03*
X291701511Y-80008719D03*
X304628511Y-77468719D03*
X329801511Y-65721219D03*
X342728511Y-63181219D03*
X291701511Y-41908719D03*
X304628511Y-39368719D03*
X272651511Y-97915719D03*
X285578511Y-95375719D03*
X131736992Y-120563240D03*
X144663992Y-118023240D03*
D12*
X158308052Y-129368070D03*
X163004276Y-117059357D03*
D10*
X84111992Y-60746240D03*
X97038992Y-58206240D03*
X310751511Y-45528219D03*
X323678511Y-42988219D03*
X65061992Y-83415740D03*
X77988992Y-80875740D03*
X234551511Y-44575719D03*
X247478511Y-42035719D03*
X141261992Y-82463240D03*
X154188992Y-79923240D03*
X234551511Y-82675719D03*
X247478511Y-80135719D03*
X253601511Y-60958719D03*
X266528511Y-58418719D03*
X122211992Y-79796240D03*
X135138992Y-77256240D03*
X65061992Y-102465740D03*
X77988992Y-99925740D03*
M02*
