M48
; DRILL file {KiCad 9.0.3} date 2025-10-28T13:14:36+1000
; FORMAT={-:-/ absolute / metric / decimal}
; #@! TF.CreationDate,2025-10-28T13:14:36+10:00
; #@! TF.GenerationSoftware,Kicad,Pcbnew,9.0.3
; #@! TF.FileFunction,Plated,1,2,PTH
FMAT,2
METRIC
; #@! TA.AperFunction,Plated,PTH,ViaDrill
T1C0.300
; #@! TA.AperFunction,Plated,PTH,ViaDrill
T2C0.400
; #@! TA.AperFunction,Plated,PTH,ComponentDrill
T3C0.800
; #@! TA.AperFunction,Plated,PTH,ComponentDrill
T4C0.914
; #@! TA.AperFunction,Plated,PTH,ComponentDrill
T5C1.000
; #@! TA.AperFunction,Plated,PTH,ComponentDrill
T6C1.500
%
G90
G05
T1
X43.25Y-115.1
X43.25Y-116.0
X43.9Y-40.05
X43.9Y-40.95
X44.087Y-114.65
X44.087Y-115.55
X44.087Y-116.45
X44.737Y-39.6
X44.737Y-40.5
X44.737Y-41.4
X44.925Y-115.103
X44.925Y-116.003
X45.575Y-40.053
X45.575Y-40.953
X91.85Y-131.35
X91.85Y-132.25
X92.687Y-130.9
X92.687Y-131.8
X92.687Y-132.7
X93.525Y-131.353
X93.525Y-132.253
X117.163Y-114.55
X117.163Y-115.45
X118.0Y-114.1
X118.0Y-115.0
X118.0Y-115.9
X118.838Y-114.553
X118.838Y-115.453
X150.913Y-107.55
X150.913Y-108.45
X151.75Y-107.1
X151.75Y-108.0
X151.75Y-108.9
X152.413Y-128.8
X152.413Y-129.7
X152.588Y-107.553
X152.588Y-108.453
X153.25Y-128.35
X153.25Y-129.25
X153.25Y-130.15
X153.575Y-35.247
X153.575Y-36.147
X154.088Y-128.803
X154.088Y-129.703
X154.412Y-34.797
X154.412Y-35.697
X154.412Y-36.597
X155.25Y-35.25
X155.25Y-36.15
X156.923Y-53.3
X158.6Y-42.95
X158.65Y-40.75
X158.697Y-45.15
X162.9Y-140.75
X162.9Y-141.65
X163.737Y-140.3
X163.737Y-141.2
X163.737Y-142.1
X164.575Y-140.753
X164.575Y-141.653
X166.75Y-67.75
X167.075Y-80.847
X167.075Y-81.747
X167.65Y-67.75
X167.912Y-80.397
X167.912Y-81.297
X167.912Y-82.197
X168.75Y-80.85
X168.75Y-81.75
X178.15Y-40.0
X178.153Y-38.3
X179.66Y-80.85
X179.7Y-81.95
X181.0Y-33.65
X181.0Y-34.55
X181.837Y-33.2
X181.837Y-34.1
X181.837Y-35.0
X182.675Y-33.653
X182.675Y-34.553
X183.027Y-56.6
X205.15Y-62.513
X205.6Y-63.35
X205.603Y-61.675
X205.963Y-49.0
X205.963Y-49.9
X206.05Y-62.513
X206.8Y-48.55
X206.8Y-49.45
X206.8Y-50.35
X207.448Y-66.0
X207.638Y-49.003
X207.638Y-49.903
X207.913Y-33.95
X207.913Y-34.85
X208.75Y-33.5
X208.75Y-34.4
X208.75Y-35.3
X209.588Y-33.953
X209.588Y-34.853
X210.051Y-70.55
X211.4Y-40.75
X211.4Y-45.5
X211.403Y-43.0
X213.663Y-70.553
X214.5Y-74.55
X214.5Y-75.45
X214.5Y-76.35
X214.713Y-83.5
X214.713Y-84.4
X215.55Y-83.05
X215.55Y-83.95
X215.55Y-84.85
X216.388Y-83.503
X216.388Y-84.403
X223.325Y-68.447
X223.375Y-71.097
X224.275Y-74.097
X224.275Y-74.997
X224.6Y-115.3
X225.0Y-68.45
X225.05Y-71.1
X225.112Y-73.647
X225.112Y-74.547
X225.112Y-75.447
X225.563Y-140.55
X225.563Y-141.45
X225.95Y-74.1
X225.95Y-75.0
X226.4Y-140.1
X226.4Y-141.0
X226.4Y-141.9
X227.238Y-140.553
X227.238Y-141.453
X228.9Y-79.4
X230.55Y-113.7
X231.3Y-40.5
X231.303Y-38.0
X233.827Y-71.455
X233.9Y-112.65
X233.925Y-33.947
X233.925Y-34.847
X234.55Y-103.65
X234.762Y-33.497
X234.762Y-34.397
X234.762Y-35.297
X235.6Y-33.95
X235.6Y-34.85
X240.95Y-120.75
X256.85Y-125.7
X277.0Y-124.7
X294.825Y-124.625
X295.763Y-131.0
X295.763Y-131.9
X296.6Y-130.55
X296.6Y-131.45
X296.6Y-132.35
X297.438Y-131.003
X297.438Y-131.903
X344.613Y-114.9
X344.613Y-115.8
X344.863Y-40.3
X344.863Y-41.2
X345.45Y-114.45
X345.45Y-115.35
X345.45Y-116.25
X345.7Y-39.85
X345.7Y-40.75
X345.7Y-41.65
X346.288Y-114.903
X346.288Y-115.803
X346.538Y-40.303
X346.538Y-41.203
T2
X181.5Y-67.15
X204.45Y-57.8
X206.75Y-56.55
X206.75Y-59.6
X208.727Y-69.023
X208.75Y-66.9
X227.8Y-79.35
X232.35Y-55.35
X233.777Y-69.65
T3
X48.419Y-57.545
X48.419Y-76.595
X48.419Y-95.645
X48.419Y-114.695
X56.039Y-57.545
X56.039Y-76.595
X56.039Y-95.645
X56.039Y-114.695
X67.469Y-56.402
X67.469Y-75.452
X67.469Y-94.502
X67.469Y-113.552
X75.089Y-56.402
X75.089Y-75.452
X75.089Y-94.502
X75.089Y-113.552
X86.519Y-52.783
X86.519Y-71.833
X86.519Y-90.883
X86.519Y-109.933
X94.139Y-52.783
X94.139Y-71.833
X94.139Y-90.883
X94.139Y-109.933
X96.044Y-129.7
X103.664Y-129.7
X105.569Y-51.64
X105.569Y-70.69
X105.569Y-89.74
X105.569Y-108.79
X113.189Y-51.64
X113.189Y-70.69
X113.189Y-89.74
X113.189Y-108.79
X115.09Y-129.7
X122.71Y-129.7
X124.619Y-52.783
X124.619Y-71.833
X124.619Y-90.883
X124.619Y-109.933
X132.239Y-52.783
X132.239Y-71.833
X132.239Y-90.883
X132.239Y-109.933
X134.144Y-131.2
X141.764Y-131.2
X143.669Y-55.45
X143.669Y-74.5
X143.669Y-93.55
X143.669Y-112.6
X151.289Y-55.45
X151.289Y-74.5
X151.289Y-93.55
X151.289Y-112.6
X156.27Y-121.781
X160.308Y-115.319
X163.979Y-104.55
X171.599Y-104.55
X218.822Y-104.911
X226.442Y-104.911
X229.599Y-115.18
X233.637Y-121.642
X236.959Y-55.662
X236.959Y-93.762
X236.959Y-112.812
X236.99Y-74.7
X244.579Y-55.662
X244.579Y-93.762
X244.579Y-112.812
X244.61Y-74.7
X246.484Y-131.862
X254.104Y-131.862
X256.009Y-52.995
X256.009Y-72.045
X256.009Y-91.095
X256.009Y-110.145
X263.629Y-52.995
X263.629Y-72.045
X263.629Y-91.095
X263.629Y-110.145
X265.534Y-130.529
X273.154Y-130.529
X275.059Y-51.852
X275.059Y-70.902
X275.059Y-89.952
X275.059Y-109.002
X282.679Y-51.852
X282.679Y-70.902
X282.679Y-89.952
X282.679Y-109.002
X284.584Y-130.529
X292.204Y-130.529
X294.109Y-52.995
X294.109Y-72.045
X294.109Y-91.095
X294.109Y-110.145
X301.729Y-52.995
X301.729Y-72.045
X301.729Y-91.095
X301.729Y-110.145
X313.159Y-56.615
X313.159Y-75.665
X313.159Y-94.715
X313.159Y-113.765
X320.779Y-56.615
X320.779Y-75.665
X320.779Y-94.715
X320.779Y-113.765
X332.209Y-57.758
X332.209Y-76.808
X332.209Y-95.858
X332.209Y-114.908
X339.829Y-57.758
X339.829Y-76.808
X339.829Y-95.858
X339.829Y-114.908
T4
X160.757Y-36.528
X160.757Y-39.068
X160.757Y-41.608
X160.757Y-44.148
X160.757Y-46.688
X160.757Y-49.228
X160.757Y-51.768
X160.757Y-54.308
X160.757Y-56.848
X160.757Y-59.388
X160.757Y-61.928
X160.757Y-64.468
X175.997Y-36.528
X175.997Y-39.068
X175.997Y-41.608
X175.997Y-44.148
X175.997Y-46.688
X175.997Y-49.228
X175.997Y-51.768
X175.997Y-54.308
X175.997Y-56.848
X175.997Y-59.388
X175.997Y-61.928
X175.997Y-64.468
X213.987Y-36.741
X213.987Y-39.281
X213.987Y-41.821
X213.987Y-44.361
X213.987Y-46.901
X213.987Y-49.441
X213.987Y-51.981
X213.987Y-54.521
X213.987Y-57.061
X213.987Y-59.601
X213.987Y-62.141
X213.987Y-64.681
X229.227Y-36.741
X229.227Y-39.281
X229.227Y-41.821
X229.227Y-44.361
X229.227Y-46.901
X229.227Y-49.441
X229.227Y-51.981
X229.227Y-54.521
X229.227Y-57.061
X229.227Y-59.601
X229.227Y-62.141
X229.227Y-64.681
T5
X163.347Y-69.741
X165.887Y-69.741
X166.897Y-87.028
X166.897Y-101.528
X168.427Y-69.741
X169.397Y-87.028
X170.967Y-69.741
X171.897Y-87.028
X171.897Y-101.528
X173.507Y-69.741
X216.537Y-69.741
X218.087Y-87.241
X218.087Y-101.741
X219.077Y-69.741
X220.587Y-87.241
X221.617Y-69.741
X223.087Y-87.241
X223.087Y-101.741
X224.157Y-69.741
X226.697Y-69.741
T6
X164.317Y-91.988
X166.857Y-98.338
X215.507Y-92.201
X218.047Y-98.551
T6
X163.797Y-93.878G85X163.797Y-95.178
G05
X174.997Y-93.878G85X174.997Y-95.178
G05
X214.987Y-94.091G85X214.987Y-95.391
G05
X226.187Y-94.091G85X226.187Y-95.391
G05
M30
