M48
; DRILL file {KiCad 9.0.3} date 2025-10-28T13:14:36+1000
; FORMAT={-:-/ absolute / metric / decimal}
; #@! TF.CreationDate,2025-10-28T13:14:36+10:00
; #@! TF.GenerationSoftware,Kicad,Pcbnew,9.0.3
; #@! TF.FileFunction,NonPlated,1,2,NPTH
FMAT,2
METRIC
; #@! TA.AperFunction,NonPlated,NPTH,ComponentDrill
T1C0.600
; #@! TA.AperFunction,NonPlated,NPTH,ComponentDrill
T2C0.850
; #@! TA.AperFunction,NonPlated,NPTH,ComponentDrill
T3C1.750
; #@! TA.AperFunction,NonPlated,NPTH,ComponentDrill
T4C2.200
; #@! TA.AperFunction,NonPlated,NPTH,ComponentDrill
T5C3.050
; #@! TA.AperFunction,NonPlated,NPTH,ComponentDrill
T6C4.000
%
G90
G05
T1
X41.2Y-73.4
X41.2Y-74.4
X41.2Y-75.4
X41.2Y-76.4
X41.2Y-77.4
X41.2Y-78.4
X41.2Y-79.4
X41.2Y-80.4
X41.2Y-81.4
X41.2Y-82.4
X41.2Y-83.4
X41.2Y-84.4
X41.2Y-85.4
X45.833Y-37.512
X46.833Y-37.512
X47.833Y-37.512
X48.833Y-37.512
X49.833Y-37.512
X50.833Y-37.512
X51.833Y-37.512
X52.213Y-118.284
X52.833Y-37.512
X53.213Y-118.284
X53.833Y-37.512
X54.213Y-118.284
X54.833Y-37.512
X55.213Y-118.284
X55.833Y-37.512
X56.213Y-118.284
X56.833Y-37.512
X57.213Y-118.284
X58.213Y-118.284
X59.213Y-118.284
X60.213Y-118.284
X61.213Y-118.284
X62.213Y-118.284
X63.213Y-118.284
X64.213Y-118.284
X115.594Y-31.528
X116.594Y-31.528
X117.402Y-134.913
X117.594Y-31.528
X118.402Y-134.913
X118.594Y-31.528
X119.402Y-134.913
X119.594Y-31.528
X120.402Y-134.913
X120.594Y-31.528
X121.402Y-134.913
X121.594Y-31.528
X122.402Y-134.913
X122.594Y-31.528
X123.402Y-134.913
X123.594Y-31.528
X124.402Y-134.913
X124.594Y-31.528
X125.402Y-134.913
X125.594Y-31.528
X126.402Y-134.913
X126.594Y-31.528
X127.402Y-134.913
X127.594Y-31.528
X128.402Y-134.913
X129.402Y-134.913
X186.5Y-48.75
X186.5Y-49.75
X186.5Y-50.75
X186.5Y-51.75
X186.5Y-52.75
X186.5Y-53.75
X186.5Y-54.75
X203.487Y-48.75
X203.487Y-49.75
X203.487Y-50.75
X203.487Y-51.75
X203.487Y-52.75
X203.487Y-53.75
X203.487Y-54.75
X260.582Y-135.126
X261.582Y-135.126
X262.387Y-31.741
X262.582Y-135.126
X263.387Y-31.741
X263.582Y-135.126
X264.387Y-31.741
X264.582Y-135.126
X265.387Y-31.741
X265.582Y-135.126
X266.387Y-31.741
X266.582Y-135.126
X267.387Y-31.741
X267.582Y-135.126
X268.387Y-31.741
X268.582Y-135.126
X269.387Y-31.741
X269.582Y-135.126
X270.387Y-31.741
X270.582Y-135.126
X271.387Y-31.741
X271.582Y-135.126
X272.387Y-31.741
X272.582Y-135.126
X273.387Y-31.741
X274.387Y-31.741
X325.768Y-118.497
X326.768Y-118.497
X327.768Y-118.497
X328.768Y-118.497
X329.768Y-118.497
X330.768Y-118.497
X331.768Y-118.497
X332.148Y-37.726
X332.768Y-118.497
X333.148Y-37.726
X333.768Y-118.497
X334.148Y-37.726
X334.768Y-118.497
X335.148Y-37.726
X335.768Y-118.497
X336.148Y-37.726
X336.768Y-118.497
X337.148Y-37.726
X337.768Y-118.497
X338.148Y-37.726
X339.148Y-37.726
X340.148Y-37.726
X341.148Y-37.726
X342.148Y-37.726
X343.148Y-37.726
X344.148Y-37.726
X348.8Y-73.4
X348.8Y-74.4
X348.8Y-75.4
X348.8Y-76.4
X348.8Y-77.4
X348.8Y-78.4
X348.8Y-79.4
X348.8Y-80.4
X348.8Y-81.4
X348.8Y-82.4
X348.8Y-83.4
X348.8Y-84.4
X348.8Y-85.4
T2
X184.297Y-40.728
X184.297Y-43.728
X205.687Y-40.941
X205.687Y-43.941
T3
X48.017Y-48.999
X48.017Y-68.049
X48.017Y-87.099
X48.017Y-106.149
X58.177Y-48.999
X58.177Y-68.049
X58.177Y-87.099
X58.177Y-106.149
X67.067Y-47.856
X67.067Y-66.906
X67.067Y-85.956
X67.067Y-105.006
X77.227Y-47.856
X77.227Y-66.906
X77.227Y-85.956
X77.227Y-105.006
X86.117Y-44.236
X86.117Y-63.286
X86.117Y-82.336
X86.117Y-101.386
X95.642Y-121.77
X96.277Y-44.236
X96.277Y-63.286
X96.277Y-82.336
X96.277Y-101.386
X105.167Y-43.093
X105.167Y-62.143
X105.167Y-81.193
X105.167Y-100.243
X105.802Y-121.77
X114.692Y-121.77
X115.327Y-43.093
X115.327Y-62.143
X115.327Y-81.193
X115.327Y-100.243
X124.217Y-44.236
X124.217Y-63.286
X124.217Y-82.336
X124.217Y-101.386
X124.852Y-121.77
X133.742Y-123.103
X134.377Y-44.236
X134.377Y-63.286
X134.377Y-82.336
X134.377Y-101.386
X143.267Y-46.903
X143.267Y-65.953
X143.267Y-85.003
X143.267Y-104.053
X143.902Y-123.103
X153.427Y-46.903
X153.427Y-65.953
X153.427Y-85.003
X153.427Y-104.053
X161.525Y-129.014
X166.909Y-120.398
X169.397Y-89.448
X169.397Y-99.608
X220.587Y-89.661
X220.587Y-99.821
X223.075Y-120.61
X228.459Y-129.226
X236.557Y-47.116
X236.557Y-66.166
X236.557Y-85.216
X236.557Y-104.266
X246.082Y-123.316
X246.717Y-47.116
X246.717Y-66.166
X246.717Y-85.216
X246.717Y-104.266
X255.607Y-44.449
X255.607Y-63.499
X255.607Y-82.549
X255.607Y-101.599
X256.242Y-123.316
X265.132Y-121.982
X265.767Y-44.449
X265.767Y-63.499
X265.767Y-82.549
X265.767Y-101.599
X274.657Y-43.306
X274.657Y-62.356
X274.657Y-81.406
X274.657Y-100.456
X275.292Y-121.982
X284.182Y-121.982
X284.817Y-43.306
X284.817Y-62.356
X284.817Y-81.406
X284.817Y-100.456
X293.707Y-44.449
X293.707Y-63.499
X293.707Y-82.549
X293.707Y-101.599
X294.342Y-121.982
X303.867Y-44.449
X303.867Y-63.499
X303.867Y-82.549
X303.867Y-101.599
X312.757Y-48.068
X312.757Y-67.118
X312.757Y-86.168
X312.757Y-105.218
X322.917Y-48.068
X322.917Y-67.118
X322.917Y-86.168
X322.917Y-105.218
X331.807Y-49.211
X331.807Y-68.261
X331.807Y-87.311
X331.807Y-106.361
X341.967Y-49.211
X341.967Y-68.261
X341.967Y-87.311
X341.967Y-106.361
T4
X80.843Y-57.114
X81.143Y-94.914
X138.443Y-53.715
X138.643Y-91.215
X152.143Y-117.715
X160.543Y-75.114
X184.143Y-84.014
X206.032Y-84.227
X229.632Y-75.327
X238.032Y-117.927
X251.532Y-91.427
X251.732Y-53.927
X309.032Y-95.127
X309.332Y-57.327
T5
X49.287Y-46.459
X49.287Y-65.509
X49.287Y-84.559
X49.287Y-103.609
X55.637Y-43.919
X55.637Y-62.969
X55.637Y-82.019
X55.637Y-101.069
X68.337Y-45.316
X68.337Y-64.366
X68.337Y-83.416
X68.337Y-102.466
X74.687Y-42.776
X74.687Y-61.826
X74.687Y-80.876
X74.687Y-99.926
X87.387Y-41.696
X87.387Y-60.746
X87.387Y-79.796
X87.387Y-98.846
X93.737Y-39.156
X93.737Y-58.206
X93.737Y-77.256
X93.737Y-96.306
X96.912Y-119.23
X103.262Y-116.69
X106.437Y-40.553
X106.437Y-59.603
X106.437Y-78.653
X106.437Y-97.703
X112.787Y-38.013
X112.787Y-57.063
X112.787Y-76.113
X112.787Y-95.163
X115.962Y-119.23
X122.312Y-116.69
X125.487Y-41.696
X125.487Y-60.746
X125.487Y-79.796
X125.487Y-98.846
X131.837Y-39.156
X131.837Y-58.206
X131.837Y-77.256
X131.837Y-96.306
X135.012Y-120.563
X141.362Y-118.023
X144.537Y-44.363
X144.537Y-63.413
X144.537Y-82.463
X144.537Y-101.513
X150.887Y-41.823
X150.887Y-60.873
X150.887Y-79.923
X150.887Y-98.973
X160.044Y-126.591
X161.254Y-119.86
X225.902Y-120.341
X231.421Y-124.38
X237.827Y-44.576
X237.827Y-63.626
X237.827Y-82.676
X237.827Y-101.726
X244.177Y-42.036
X244.177Y-61.086
X244.177Y-80.136
X244.177Y-99.186
X247.352Y-120.776
X253.702Y-118.236
X256.877Y-41.909
X256.877Y-60.959
X256.877Y-80.009
X256.877Y-99.059
X263.227Y-39.369
X263.227Y-58.419
X263.227Y-77.469
X263.227Y-96.519
X266.402Y-119.442
X272.752Y-116.902
X275.927Y-40.766
X275.927Y-59.816
X275.927Y-78.866
X275.927Y-97.916
X282.277Y-38.226
X282.277Y-57.276
X282.277Y-76.326
X282.277Y-95.376
X285.452Y-119.442
X291.802Y-116.902
X294.977Y-41.909
X294.977Y-60.959
X294.977Y-80.009
X294.977Y-99.059
X301.327Y-39.369
X301.327Y-58.419
X301.327Y-77.469
X301.327Y-96.519
X314.027Y-45.528
X314.027Y-64.578
X314.027Y-83.628
X314.027Y-102.678
X320.377Y-42.988
X320.377Y-62.038
X320.377Y-81.088
X320.377Y-100.138
X333.077Y-46.671
X333.077Y-65.721
X333.077Y-84.771
X333.077Y-103.821
X339.427Y-44.131
X339.427Y-63.181
X339.427Y-82.231
X339.427Y-101.281
T6
X53.097Y-48.999
X53.097Y-68.049
X53.097Y-87.099
X53.097Y-106.149
X72.147Y-47.856
X72.147Y-66.906
X72.147Y-85.956
X72.147Y-105.006
X91.197Y-44.236
X91.197Y-63.286
X91.197Y-82.336
X91.197Y-101.386
X100.722Y-121.77
X110.247Y-43.093
X110.247Y-62.143
X110.247Y-81.193
X110.247Y-100.243
X119.772Y-121.77
X129.297Y-44.236
X129.297Y-63.286
X129.297Y-82.336
X129.297Y-101.386
X138.822Y-123.103
X148.347Y-46.903
X148.347Y-65.953
X148.347Y-85.003
X148.347Y-104.053
X164.217Y-124.706
X169.397Y-94.528
X220.587Y-94.741
X225.767Y-124.918
X241.637Y-47.116
X241.637Y-66.166
X241.637Y-85.216
X241.637Y-104.266
X251.162Y-123.316
X260.687Y-44.449
X260.687Y-63.499
X260.687Y-82.549
X260.687Y-101.599
X270.212Y-121.982
X279.737Y-43.306
X279.737Y-62.356
X279.737Y-81.406
X279.737Y-100.456
X289.262Y-121.982
X298.787Y-44.449
X298.787Y-63.499
X298.787Y-82.549
X298.787Y-101.599
X317.837Y-48.068
X317.837Y-67.118
X317.837Y-86.168
X317.837Y-105.218
X336.887Y-49.211
X336.887Y-68.261
X336.887Y-87.311
X336.887Y-106.361
M30
