G04 #@! TF.GenerationSoftware,KiCad,Pcbnew,9.0.3*
G04 #@! TF.CreationDate,2025-10-28T13:13:55+10:00*
G04 #@! TF.ProjectId,prototype-mk1_panel,70726f74-6f74-4797-9065-2d6d6b315f70,rev?*
G04 #@! TF.SameCoordinates,Original*
G04 #@! TF.FileFunction,Soldermask,Bot*
G04 #@! TF.FilePolarity,Negative*
%FSLAX46Y46*%
G04 Gerber Fmt 4.6, Leading zero omitted, Abs format (unit mm)*
G04 Created by KiCad (PCBNEW 9.0.3) date 2025-10-28 13:13:55*
%MOMM*%
%LPD*%
G01*
G04 APERTURE LIST*
G04 Aperture macros list*
%AMRoundRect*
0 Rectangle with rounded corners*
0 $1 Rounding radius*
0 $2 $3 $4 $5 $6 $7 $8 $9 X,Y pos of 4 corners*
0 Add a 4 corners polygon primitive as box body*
4,1,4,$2,$3,$4,$5,$6,$7,$8,$9,$2,$3,0*
0 Add four circle primitives for the rounded corners*
1,1,$1+$1,$2,$3*
1,1,$1+$1,$4,$5*
1,1,$1+$1,$6,$7*
1,1,$1+$1,$8,$9*
0 Add four rect primitives between the rounded corners*
20,1,$1+$1,$2,$3,$4,$5,0*
20,1,$1+$1,$4,$5,$6,$7,0*
20,1,$1+$1,$6,$7,$8,$9,0*
20,1,$1+$1,$8,$9,$2,$3,0*%
%AMHorizOval*
0 Thick line with rounded ends*
0 $1 width*
0 $2 $3 position (X,Y) of the first rounded end (center of the circle)*
0 $4 $5 position (X,Y) of the second rounded end (center of the circle)*
0 Add line between two ends*
20,1,$1,$2,$3,$4,$5,0*
0 Add two circle primitives to create the rounded ends*
1,1,$1,$2,$3*
1,1,$1,$4,$5*%
%AMRotRect*
0 Rectangle, with rotation*
0 The origin of the aperture is its center*
0 $1 length*
0 $2 width*
0 $3 Rotation angle, in degrees counterclockwise*
0 Add horizontal line*
21,1,$1,$2,0,0,$3*%
G04 Aperture macros list end*
%ADD10C,0.600000*%
%ADD11C,1.750000*%
%ADD12C,3.050000*%
%ADD13C,4.000000*%
%ADD14RoundRect,0.250000X-1.025000X-1.000000X1.025000X-1.000000X1.025000X1.000000X-1.025000X1.000000X0*%
%ADD15C,2.200000*%
%ADD16O,2.300000X1.600000*%
%ADD17RoundRect,0.250000X-1.391215X0.339330X-0.304881X-1.399169X1.391215X-0.339330X0.304881X1.399169X0*%
%ADD18C,2.000000*%
%ADD19RoundRect,0.250000X-0.750000X1.350000X-0.750000X-1.350000X0.750000X-1.350000X0.750000X1.350000X0*%
%ADD20C,2.500000*%
%ADD21C,0.850000*%
%ADD22R,1.700000X1.700000*%
%ADD23C,1.700000*%
%ADD24RoundRect,0.250000X0.304881X-1.399169X1.391215X0.339330X-0.304881X1.399169X-1.391215X-0.339330X0*%
%ADD25R,1.600000X1.600000*%
%ADD26O,1.600000X1.600000*%
%ADD27RotRect,1.600000X1.600000X302.000000*%
%ADD28HorizOval,1.600000X0.000000X0.000000X0.000000X0.000000X0*%
%ADD29RotRect,1.600000X1.600000X58.000000*%
%ADD30HorizOval,1.600000X0.000000X0.000000X0.000000X0.000000X0*%
G04 APERTURE END LIST*
D10*
X203486511Y-53750000D03*
X348800000Y-80400000D03*
X60213200Y-118284240D03*
D11*
X331806511Y-87311219D03*
D12*
X333076511Y-84771219D03*
D13*
X336886511Y-87311219D03*
D12*
X339426511Y-82231219D03*
D11*
X341966511Y-87311219D03*
D14*
X329801511Y-84771219D03*
X342728511Y-82231219D03*
D11*
X105166992Y-100243240D03*
D12*
X106436992Y-97703240D03*
D13*
X110246992Y-100243240D03*
D12*
X112786992Y-95163240D03*
D11*
X115326992Y-100243240D03*
D14*
X103161992Y-97703240D03*
X116088992Y-95163240D03*
D11*
X331806511Y-49211219D03*
D12*
X333076511Y-46671219D03*
D13*
X336886511Y-49211219D03*
D12*
X339426511Y-44131219D03*
D11*
X341966511Y-49211219D03*
D14*
X329801511Y-46671219D03*
X342728511Y-44131219D03*
D10*
X273387119Y-31740719D03*
X266581703Y-135125919D03*
D11*
X48016992Y-48998740D03*
D12*
X49286992Y-46458740D03*
D13*
X53096992Y-48998740D03*
D12*
X55636992Y-43918740D03*
D11*
X58176992Y-48998740D03*
D14*
X46011992Y-46458740D03*
X58938992Y-43918740D03*
D11*
X124216992Y-101386240D03*
D12*
X125486992Y-98846240D03*
D13*
X129296992Y-101386240D03*
D12*
X131836992Y-96306240D03*
D11*
X134376992Y-101386240D03*
D14*
X122211992Y-98846240D03*
X135138992Y-96306240D03*
D10*
X41200000Y-79400000D03*
X267581703Y-135125919D03*
X46832800Y-37511700D03*
X335147919Y-37726319D03*
X123593600Y-31528240D03*
X348800000Y-75400000D03*
X125401800Y-134913440D03*
X263387119Y-31740719D03*
X41200000Y-83400000D03*
X264387119Y-31740719D03*
X348800000Y-78400000D03*
X348800000Y-85400000D03*
D11*
X143266992Y-46903240D03*
D12*
X144536992Y-44363240D03*
D13*
X148346992Y-46903240D03*
D12*
X150886992Y-41823240D03*
D11*
X153426992Y-46903240D03*
D14*
X141261992Y-44363240D03*
X154188992Y-41823240D03*
D11*
X48016992Y-87098740D03*
D12*
X49286992Y-84558740D03*
D13*
X53096992Y-87098740D03*
D12*
X55636992Y-82018740D03*
D11*
X58176992Y-87098740D03*
D14*
X46011992Y-84558740D03*
X58938992Y-82018740D03*
D10*
X343147919Y-37726319D03*
X264581703Y-135125919D03*
X274387119Y-31740719D03*
X265581703Y-135125919D03*
X56213200Y-118284240D03*
D15*
X160542800Y-75114500D03*
D11*
X95641992Y-121769740D03*
D12*
X96911992Y-119229740D03*
D13*
X100721992Y-121769740D03*
D12*
X103261992Y-116689740D03*
D11*
X105801992Y-121769740D03*
D14*
X93636992Y-119229740D03*
X106563992Y-116689740D03*
D10*
X341147919Y-37726319D03*
D11*
X143266992Y-65953240D03*
D12*
X144536992Y-63413240D03*
D13*
X148346992Y-65953240D03*
D12*
X150886992Y-60873240D03*
D11*
X153426992Y-65953240D03*
D14*
X141261992Y-63413240D03*
X154188992Y-60873240D03*
D11*
X105166992Y-62143240D03*
D12*
X106436992Y-59603240D03*
D13*
X110246992Y-62143240D03*
D12*
X112786992Y-57063240D03*
D11*
X115326992Y-62143240D03*
D14*
X103161992Y-59603240D03*
X116088992Y-57063240D03*
D10*
X186500000Y-49750000D03*
X270387119Y-31740719D03*
X55832800Y-37511700D03*
X348800000Y-82400000D03*
X62213200Y-118284240D03*
X348800000Y-84400000D03*
D11*
X274656511Y-43305719D03*
D12*
X275926511Y-40765719D03*
D13*
X279736511Y-43305719D03*
D12*
X282276511Y-38225719D03*
D11*
X284816511Y-43305719D03*
D14*
X272651511Y-40765719D03*
X285578511Y-38225719D03*
D10*
X268387119Y-31740719D03*
X186500000Y-50750000D03*
X326767519Y-118496719D03*
D15*
X138442800Y-53714500D03*
D16*
X213686516Y-36740729D03*
X213686516Y-39280729D03*
X213686516Y-41820729D03*
X213686516Y-44360729D03*
X213686516Y-46900729D03*
X213686516Y-49440729D03*
X213686516Y-51980729D03*
X213686516Y-54520729D03*
X213686516Y-57060729D03*
X213686516Y-59600729D03*
X213686516Y-62140729D03*
X213686516Y-64680729D03*
X229526526Y-64680719D03*
X229526526Y-62140719D03*
X229526526Y-59600719D03*
X229526526Y-57060719D03*
X229526526Y-54520719D03*
X229526526Y-51980719D03*
X229526526Y-49440719D03*
X229526526Y-46900719D03*
X229526526Y-44360719D03*
X229526526Y-41820719D03*
X229526526Y-39280719D03*
X229526526Y-36740719D03*
D11*
X223074941Y-120610039D03*
D12*
X225901981Y-120341065D03*
D13*
X225766931Y-124918123D03*
D12*
X231421010Y-124380175D03*
D11*
X228458921Y-129226207D03*
D17*
X224166495Y-117563707D03*
X233170804Y-127180430D03*
D11*
X220586511Y-89660719D03*
D13*
X220586511Y-94740719D03*
D11*
X220586511Y-99820719D03*
D18*
X223086511Y-87240719D03*
X218086511Y-87240719D03*
X220586511Y-87240719D03*
D19*
X226186511Y-94740719D03*
D20*
X218046511Y-98550719D03*
D18*
X218086511Y-101740719D03*
D20*
X215506511Y-92200719D03*
D19*
X214986511Y-94740719D03*
D18*
X223086511Y-101740719D03*
D11*
X236556511Y-104265719D03*
D12*
X237826511Y-101725719D03*
D13*
X241636511Y-104265719D03*
D12*
X244176511Y-99185719D03*
D11*
X246716511Y-104265719D03*
D14*
X234551511Y-101725719D03*
X247478511Y-99185719D03*
D10*
X333767519Y-118496719D03*
D21*
X205686511Y-43940719D03*
X205686511Y-40940719D03*
D10*
X56832800Y-37511700D03*
D11*
X312756511Y-86168219D03*
D12*
X314026511Y-83628219D03*
D13*
X317836511Y-86168219D03*
D12*
X320376511Y-81088219D03*
D11*
X322916511Y-86168219D03*
D14*
X310751511Y-83628219D03*
X323678511Y-81088219D03*
D10*
X64213200Y-118284240D03*
X41200000Y-84400000D03*
X52832800Y-37511700D03*
X126593600Y-31528240D03*
X55213200Y-118284240D03*
X348800000Y-81400000D03*
D11*
X124216992Y-44236240D03*
D12*
X125486992Y-41696240D03*
D13*
X129296992Y-44236240D03*
D12*
X131836992Y-39156240D03*
D11*
X134376992Y-44236240D03*
D14*
X122211992Y-41696240D03*
X135138992Y-39156240D03*
D11*
X86116992Y-101386240D03*
D12*
X87386992Y-98846240D03*
D13*
X91196992Y-101386240D03*
D12*
X93736992Y-96306240D03*
D11*
X96276992Y-101386240D03*
D14*
X84111992Y-98846240D03*
X97038992Y-96306240D03*
D10*
X125593600Y-31528240D03*
X265387119Y-31740719D03*
D11*
X105166992Y-43093240D03*
D12*
X106436992Y-40553240D03*
D13*
X110246992Y-43093240D03*
D12*
X112786992Y-38013240D03*
D11*
X115326992Y-43093240D03*
D14*
X103161992Y-40553240D03*
X116088992Y-38013240D03*
D11*
X331806511Y-106361219D03*
D12*
X333076511Y-103821219D03*
D13*
X336886511Y-106361219D03*
D12*
X339426511Y-101281219D03*
D11*
X341966511Y-106361219D03*
D14*
X329801511Y-103821219D03*
X342728511Y-101281219D03*
D10*
X333147919Y-37726319D03*
X340147919Y-37726319D03*
X59213200Y-118284240D03*
D11*
X48016992Y-68048740D03*
D12*
X49286992Y-65508740D03*
D13*
X53096992Y-68048740D03*
D12*
X55636992Y-62968740D03*
D11*
X58176992Y-68048740D03*
D14*
X46011992Y-65508740D03*
X58938992Y-62968740D03*
D10*
X260581703Y-135125919D03*
X41200000Y-80400000D03*
X118401800Y-134913440D03*
X266387119Y-31740719D03*
X203486511Y-54750000D03*
X120593600Y-31528240D03*
X47832800Y-37511700D03*
D11*
X265131511Y-121982219D03*
D12*
X266401511Y-119442219D03*
D13*
X270211511Y-121982219D03*
D12*
X272751511Y-116902219D03*
D11*
X275291511Y-121982219D03*
D14*
X263126511Y-119442219D03*
X276053511Y-116902219D03*
D10*
X344147919Y-37726319D03*
X263581703Y-135125919D03*
D11*
X312756511Y-105218219D03*
D12*
X314026511Y-102678219D03*
D13*
X317836511Y-105218219D03*
D12*
X320376511Y-100138219D03*
D11*
X322916511Y-105218219D03*
D14*
X310751511Y-102678219D03*
X323678511Y-100138219D03*
D10*
X117593600Y-31528240D03*
X348800000Y-76400000D03*
X63213200Y-118284240D03*
X51832800Y-37511700D03*
D11*
X86116992Y-82336240D03*
D12*
X87386992Y-79796240D03*
D13*
X91196992Y-82336240D03*
D12*
X93736992Y-77256240D03*
D11*
X96276992Y-82336240D03*
D14*
X84111992Y-79796240D03*
X97038992Y-77256240D03*
D10*
X269581703Y-135125919D03*
D11*
X293706511Y-101598719D03*
D12*
X294976511Y-99058719D03*
D13*
X298786511Y-101598719D03*
D12*
X301326511Y-96518719D03*
D11*
X303866511Y-101598719D03*
D14*
X291701511Y-99058719D03*
X304628511Y-96518719D03*
D10*
X123401800Y-134913440D03*
X122593600Y-31528240D03*
X53213200Y-118284240D03*
X41200000Y-73400000D03*
D22*
X173506992Y-69740719D03*
D23*
X170966992Y-69740719D03*
X168426992Y-69740719D03*
X165886992Y-69740719D03*
X163346992Y-69740719D03*
D10*
X186500000Y-52750000D03*
X127593600Y-31528240D03*
X119593600Y-31528240D03*
X348800000Y-83400000D03*
X203486511Y-52750000D03*
X119401800Y-134913440D03*
D11*
X236556511Y-66165719D03*
D12*
X237826511Y-63625719D03*
D13*
X241636511Y-66165719D03*
D12*
X244176511Y-61085719D03*
D11*
X246716511Y-66165719D03*
D14*
X234551511Y-63625719D03*
X247478511Y-61085719D03*
D10*
X332767519Y-118496719D03*
D11*
X67066992Y-66905740D03*
D12*
X68336992Y-64365740D03*
D13*
X72146992Y-66905740D03*
D12*
X74686992Y-61825740D03*
D11*
X77226992Y-66905740D03*
D14*
X65061992Y-64365740D03*
X77988992Y-61825740D03*
D11*
X105166992Y-81193240D03*
D12*
X106436992Y-78653240D03*
D13*
X110246992Y-81193240D03*
D12*
X112786992Y-76113240D03*
D11*
X115326992Y-81193240D03*
D14*
X103161992Y-78653240D03*
X116088992Y-76113240D03*
D10*
X348800000Y-77400000D03*
X331767519Y-118496719D03*
X50832800Y-37511700D03*
D11*
X124216992Y-63286240D03*
D12*
X125486992Y-60746240D03*
D13*
X129296992Y-63286240D03*
D12*
X131836992Y-58206240D03*
D11*
X134376992Y-63286240D03*
D14*
X122211992Y-60746240D03*
X135138992Y-58206240D03*
D10*
X41200000Y-81400000D03*
D11*
X255606511Y-101598719D03*
D12*
X256876511Y-99058719D03*
D13*
X260686511Y-101598719D03*
D12*
X263226511Y-96518719D03*
D11*
X265766511Y-101598719D03*
D14*
X253601511Y-99058719D03*
X266528511Y-96518719D03*
D11*
X67066992Y-47855740D03*
D12*
X68336992Y-45315740D03*
D13*
X72146992Y-47855740D03*
D12*
X74686992Y-42775740D03*
D11*
X77226992Y-47855740D03*
D14*
X65061992Y-45315740D03*
X77988992Y-42775740D03*
D10*
X272581703Y-135125919D03*
X186500000Y-54750000D03*
X41200000Y-85400000D03*
D11*
X48016992Y-106148740D03*
D12*
X49286992Y-103608740D03*
D13*
X53096992Y-106148740D03*
D12*
X55636992Y-101068740D03*
D11*
X58176992Y-106148740D03*
D14*
X46011992Y-103608740D03*
X58938992Y-101068740D03*
D11*
X274656511Y-81405719D03*
D12*
X275926511Y-78865719D03*
D13*
X279736511Y-81405719D03*
D12*
X282276511Y-76325719D03*
D11*
X284816511Y-81405719D03*
D14*
X272651511Y-78865719D03*
X285578511Y-76325719D03*
D10*
X124593600Y-31528240D03*
D11*
X143266992Y-104053240D03*
D12*
X144536992Y-101513240D03*
D13*
X148346992Y-104053240D03*
D12*
X150886992Y-98973240D03*
D11*
X153426992Y-104053240D03*
D14*
X141261992Y-101513240D03*
X154188992Y-98973240D03*
D11*
X284181511Y-121982219D03*
D12*
X285451511Y-119442219D03*
D13*
X289261511Y-121982219D03*
D12*
X291801511Y-116902219D03*
D11*
X294341511Y-121982219D03*
D14*
X282176511Y-119442219D03*
X295103511Y-116902219D03*
D11*
X312756511Y-67118219D03*
D12*
X314026511Y-64578219D03*
D13*
X317836511Y-67118219D03*
D12*
X320376511Y-62038219D03*
D11*
X322916511Y-67118219D03*
D14*
X310751511Y-64578219D03*
X323678511Y-62038219D03*
D10*
X272387119Y-31740719D03*
X203486511Y-48750000D03*
X115593600Y-31528240D03*
X124401800Y-134913440D03*
X336147919Y-37726319D03*
X270581703Y-135125919D03*
D11*
X293706511Y-63498719D03*
D12*
X294976511Y-60958719D03*
D13*
X298786511Y-63498719D03*
D12*
X301326511Y-58418719D03*
D11*
X303866511Y-63498719D03*
D14*
X291701511Y-60958719D03*
X304628511Y-58418719D03*
D10*
X61213200Y-118284240D03*
X269387119Y-31740719D03*
D11*
X255606511Y-44448719D03*
D12*
X256876511Y-41908719D03*
D13*
X260686511Y-44448719D03*
D12*
X263226511Y-39368719D03*
D11*
X265766511Y-44448719D03*
D14*
X253601511Y-41908719D03*
X266528511Y-39368719D03*
D10*
X271581703Y-135125919D03*
X332147919Y-37726319D03*
X126401800Y-134913440D03*
D11*
X255606511Y-82548719D03*
D12*
X256876511Y-80008719D03*
D13*
X260686511Y-82548719D03*
D12*
X263226511Y-77468719D03*
D11*
X265766511Y-82548719D03*
D14*
X253601511Y-80008719D03*
X266528511Y-77468719D03*
D10*
X325767519Y-118496719D03*
D11*
X86116992Y-44236240D03*
D12*
X87386992Y-41696240D03*
D13*
X91196992Y-44236240D03*
D12*
X93736992Y-39156240D03*
D11*
X96276992Y-44236240D03*
D14*
X84111992Y-41696240D03*
X97038992Y-39156240D03*
D11*
X169396992Y-89448240D03*
D13*
X169396992Y-94528240D03*
D11*
X169396992Y-99608240D03*
D18*
X171896992Y-87028240D03*
X166896992Y-87028240D03*
X169396992Y-87028240D03*
D19*
X174996992Y-94528240D03*
D20*
X166856992Y-98338240D03*
D18*
X166896992Y-101528240D03*
D20*
X164316992Y-91988240D03*
D19*
X163796992Y-94528240D03*
D18*
X171896992Y-101528240D03*
D11*
X274656511Y-62355719D03*
D12*
X275926511Y-59815719D03*
D13*
X279736511Y-62355719D03*
D12*
X282276511Y-57275719D03*
D11*
X284816511Y-62355719D03*
D14*
X272651511Y-59815719D03*
X285578511Y-57275719D03*
D11*
X114691992Y-121769740D03*
D12*
X115961992Y-119229740D03*
D13*
X119771992Y-121769740D03*
D12*
X122311992Y-116689740D03*
D11*
X124851992Y-121769740D03*
D14*
X112686992Y-119229740D03*
X125613992Y-116689740D03*
D10*
X54213200Y-118284240D03*
X203486511Y-50750000D03*
X186500000Y-53750000D03*
X262387119Y-31740719D03*
X348800000Y-79400000D03*
X337147919Y-37726319D03*
X328767519Y-118496719D03*
X327767519Y-118496719D03*
X338147919Y-37726319D03*
X127401800Y-134913440D03*
X128401800Y-134913440D03*
X49832800Y-37511700D03*
X339147919Y-37726319D03*
D11*
X246081511Y-123315719D03*
D12*
X247351511Y-120775719D03*
D13*
X251161511Y-123315719D03*
D12*
X253701511Y-118235719D03*
D11*
X256241511Y-123315719D03*
D14*
X244076511Y-120775719D03*
X257003511Y-118235719D03*
D11*
X293706511Y-82548719D03*
D12*
X294976511Y-80008719D03*
D13*
X298786511Y-82548719D03*
D12*
X301326511Y-77468719D03*
D11*
X303866511Y-82548719D03*
D14*
X291701511Y-80008719D03*
X304628511Y-77468719D03*
D10*
X41200000Y-82400000D03*
X52213200Y-118284240D03*
D22*
X226696511Y-69740719D03*
D23*
X224156511Y-69740719D03*
X221616511Y-69740719D03*
X219076511Y-69740719D03*
X216536511Y-69740719D03*
D10*
X41200000Y-76400000D03*
X334767519Y-118496719D03*
X348800000Y-73400000D03*
X45832800Y-37511700D03*
X116593600Y-31528240D03*
X57213200Y-118284240D03*
X330767519Y-118496719D03*
D11*
X331806511Y-68261219D03*
D12*
X333076511Y-65721219D03*
D13*
X336886511Y-68261219D03*
D12*
X339426511Y-63181219D03*
D11*
X341966511Y-68261219D03*
D14*
X329801511Y-65721219D03*
X342728511Y-63181219D03*
D10*
X186500000Y-51750000D03*
X261581703Y-135125919D03*
X348800000Y-74400000D03*
X117401800Y-134913440D03*
D15*
X80842800Y-57114500D03*
X138642800Y-91214500D03*
D10*
X41200000Y-74400000D03*
X120401800Y-134913440D03*
D11*
X293706511Y-44448719D03*
D12*
X294976511Y-41908719D03*
D13*
X298786511Y-44448719D03*
D12*
X301326511Y-39368719D03*
D11*
X303866511Y-44448719D03*
D14*
X291701511Y-41908719D03*
X304628511Y-39368719D03*
D10*
X121401800Y-134913440D03*
D15*
X152142800Y-117714500D03*
D10*
X58213200Y-118284240D03*
X271387119Y-31740719D03*
X41200000Y-75400000D03*
X41200000Y-78400000D03*
D11*
X274656511Y-100455719D03*
D12*
X275926511Y-97915719D03*
D13*
X279736511Y-100455719D03*
D12*
X282276511Y-95375719D03*
D11*
X284816511Y-100455719D03*
D14*
X272651511Y-97915719D03*
X285578511Y-95375719D03*
D10*
X336767519Y-118496719D03*
D15*
X81142800Y-94914500D03*
D11*
X133741992Y-123103240D03*
D12*
X135011992Y-120563240D03*
D13*
X138821992Y-123103240D03*
D12*
X141361992Y-118023240D03*
D11*
X143901992Y-123103240D03*
D14*
X131736992Y-120563240D03*
X144663992Y-118023240D03*
D10*
X329767519Y-118496719D03*
X41200000Y-77400000D03*
X122401800Y-134913440D03*
D11*
X161524582Y-129013728D03*
D12*
X160043537Y-126590712D03*
D13*
X164216572Y-124705644D03*
D12*
X161254483Y-119859612D03*
D11*
X166908562Y-120397560D03*
D24*
X158308052Y-129368070D03*
X163004276Y-117059357D03*
D10*
X54832800Y-37511700D03*
D11*
X86116992Y-63286240D03*
D12*
X87386992Y-60746240D03*
D13*
X91196992Y-63286240D03*
D12*
X93736992Y-58206240D03*
D11*
X96276992Y-63286240D03*
D14*
X84111992Y-60746240D03*
X97038992Y-58206240D03*
D10*
X334147919Y-37726319D03*
D21*
X184296992Y-40728240D03*
X184296992Y-43728240D03*
D11*
X312756511Y-48068219D03*
D12*
X314026511Y-45528219D03*
D13*
X317836511Y-48068219D03*
D12*
X320376511Y-42988219D03*
D11*
X322916511Y-48068219D03*
D14*
X310751511Y-45528219D03*
X323678511Y-42988219D03*
D10*
X186500000Y-48750000D03*
D11*
X67066992Y-85955740D03*
D12*
X68336992Y-83415740D03*
D13*
X72146992Y-85955740D03*
D12*
X74686992Y-80875740D03*
D11*
X77226992Y-85955740D03*
D14*
X65061992Y-83415740D03*
X77988992Y-80875740D03*
D10*
X203486511Y-49750000D03*
D11*
X236556511Y-47115719D03*
D12*
X237826511Y-44575719D03*
D13*
X241636511Y-47115719D03*
D12*
X244176511Y-42035719D03*
D11*
X246716511Y-47115719D03*
D14*
X234551511Y-44575719D03*
X247478511Y-42035719D03*
D10*
X121593600Y-31528240D03*
X262581703Y-135125919D03*
X48832800Y-37511700D03*
D15*
X184142800Y-84014500D03*
D10*
X337767519Y-118496719D03*
X129401800Y-134913440D03*
X335767519Y-118496719D03*
X267387119Y-31740719D03*
X203486511Y-51750000D03*
D11*
X143266992Y-85003240D03*
D12*
X144536992Y-82463240D03*
D13*
X148346992Y-85003240D03*
D12*
X150886992Y-79923240D03*
D11*
X153426992Y-85003240D03*
D14*
X141261992Y-82463240D03*
X154188992Y-79923240D03*
D10*
X268581703Y-135125919D03*
D11*
X236556511Y-85215719D03*
D12*
X237826511Y-82675719D03*
D13*
X241636511Y-85215719D03*
D12*
X244176511Y-80135719D03*
D11*
X246716511Y-85215719D03*
D14*
X234551511Y-82675719D03*
X247478511Y-80135719D03*
D11*
X255606511Y-63498719D03*
D12*
X256876511Y-60958719D03*
D13*
X260686511Y-63498719D03*
D12*
X263226511Y-58418719D03*
D11*
X265766511Y-63498719D03*
D14*
X253601511Y-60958719D03*
X266528511Y-58418719D03*
D10*
X53832800Y-37511700D03*
D11*
X124216992Y-82336240D03*
D12*
X125486992Y-79796240D03*
D13*
X129296992Y-82336240D03*
D12*
X131836992Y-77256240D03*
D11*
X134376992Y-82336240D03*
D14*
X122211992Y-79796240D03*
X135138992Y-77256240D03*
D10*
X118593600Y-31528240D03*
D11*
X67066992Y-105005740D03*
D12*
X68336992Y-102465740D03*
D13*
X72146992Y-105005740D03*
D12*
X74686992Y-99925740D03*
D11*
X77226992Y-105005740D03*
D14*
X65061992Y-102465740D03*
X77988992Y-99925740D03*
D16*
X160456977Y-36528250D03*
X160456977Y-39068250D03*
X160456977Y-41608250D03*
X160456977Y-44148250D03*
X160456977Y-46688250D03*
X160456977Y-49228250D03*
X160456977Y-51768250D03*
X160456977Y-54308250D03*
X160456977Y-56848250D03*
X160456977Y-59388250D03*
X160456977Y-61928250D03*
X160456977Y-64468250D03*
X176296987Y-64468240D03*
X176296987Y-61928240D03*
X176296987Y-59388240D03*
X176296987Y-56848240D03*
X176296987Y-54308240D03*
X176296987Y-51768240D03*
X176296987Y-49228240D03*
X176296987Y-46688240D03*
X176296987Y-44148240D03*
X176296987Y-41608240D03*
X176296987Y-39068240D03*
X176296987Y-36528240D03*
D10*
X342147919Y-37726319D03*
D25*
X301728511Y-72045469D03*
D26*
X294108511Y-72045469D03*
D15*
X206032319Y-84226979D03*
D25*
X282678511Y-89952469D03*
D26*
X275058511Y-89952469D03*
D25*
X151288992Y-74499990D03*
D26*
X143668992Y-74499990D03*
D25*
X75088992Y-56402490D03*
D26*
X67468992Y-56402490D03*
D25*
X339828511Y-114907969D03*
D26*
X332208511Y-114907969D03*
D25*
X244610000Y-74700000D03*
D26*
X236990000Y-74700000D03*
D25*
X151288992Y-55449990D03*
D26*
X143668992Y-55449990D03*
D25*
X320778511Y-113764969D03*
D26*
X313158511Y-113764969D03*
D27*
X229598519Y-115180156D03*
D28*
X233636504Y-121642282D03*
D25*
X151288992Y-112599990D03*
D26*
X143668992Y-112599990D03*
D25*
X113188992Y-89739990D03*
D26*
X105568992Y-89739990D03*
D25*
X339828511Y-95857969D03*
D26*
X332208511Y-95857969D03*
D25*
X94138992Y-71832990D03*
D26*
X86518992Y-71832990D03*
D25*
X56038992Y-76595490D03*
D26*
X48418992Y-76595490D03*
D15*
X251732319Y-53926979D03*
D25*
X94138992Y-52782990D03*
D26*
X86518992Y-52782990D03*
D25*
X301728511Y-91095469D03*
D26*
X294108511Y-91095469D03*
D25*
X263628511Y-110145469D03*
D26*
X256008511Y-110145469D03*
D25*
X151288992Y-93549990D03*
D26*
X143668992Y-93549990D03*
D25*
X339828511Y-57757969D03*
D26*
X332208511Y-57757969D03*
D15*
X309332319Y-57326979D03*
D25*
X113188992Y-108789990D03*
D26*
X105568992Y-108789990D03*
D15*
X229632319Y-75326979D03*
D25*
X94138992Y-109932990D03*
D26*
X86518992Y-109932990D03*
D25*
X263628511Y-72045469D03*
D26*
X256008511Y-72045469D03*
D25*
X244578511Y-93762469D03*
D26*
X236958511Y-93762469D03*
D25*
X339828511Y-76807969D03*
D26*
X332208511Y-76807969D03*
D25*
X263628511Y-91095469D03*
D26*
X256008511Y-91095469D03*
D25*
X56038992Y-114695490D03*
D26*
X48418992Y-114695490D03*
D25*
X301728511Y-52995469D03*
D26*
X294108511Y-52995469D03*
D25*
X113188992Y-70689990D03*
D26*
X105568992Y-70689990D03*
D25*
X282678511Y-51852469D03*
D26*
X275058511Y-51852469D03*
D25*
X301728511Y-110145469D03*
D26*
X294108511Y-110145469D03*
D25*
X132238992Y-52782990D03*
D26*
X124618992Y-52782990D03*
D25*
X244578511Y-55662469D03*
D26*
X236958511Y-55662469D03*
D25*
X218822319Y-104911219D03*
D26*
X226442319Y-104911219D03*
D25*
X320778511Y-56614969D03*
D26*
X313158511Y-56614969D03*
D25*
X292203511Y-130528969D03*
D26*
X284583511Y-130528969D03*
D15*
X309032319Y-95126979D03*
D25*
X132238992Y-90882990D03*
D26*
X124618992Y-90882990D03*
D25*
X56038992Y-95645490D03*
D26*
X48418992Y-95645490D03*
D25*
X273153511Y-130528969D03*
D26*
X265533511Y-130528969D03*
D29*
X156270000Y-121781054D03*
D30*
X160307985Y-115318928D03*
D25*
X254103511Y-131862469D03*
D26*
X246483511Y-131862469D03*
D25*
X163978992Y-104549990D03*
D26*
X171598992Y-104549990D03*
D25*
X122710000Y-129700000D03*
D26*
X115090000Y-129700000D03*
D15*
X251532319Y-91426979D03*
D25*
X94138992Y-90882990D03*
D26*
X86518992Y-90882990D03*
D25*
X113188992Y-51639990D03*
D26*
X105568992Y-51639990D03*
D25*
X282678511Y-109002469D03*
D26*
X275058511Y-109002469D03*
D25*
X320778511Y-94714969D03*
D26*
X313158511Y-94714969D03*
D25*
X132238992Y-109932990D03*
D26*
X124618992Y-109932990D03*
D25*
X244578511Y-112812469D03*
D26*
X236958511Y-112812469D03*
D15*
X238032319Y-117926979D03*
D25*
X75088992Y-75452490D03*
D26*
X67468992Y-75452490D03*
D25*
X282678511Y-70902469D03*
D26*
X275058511Y-70902469D03*
D25*
X56038992Y-57545490D03*
D26*
X48418992Y-57545490D03*
D25*
X103663992Y-129700000D03*
D26*
X96043992Y-129700000D03*
D25*
X75088992Y-94502490D03*
D26*
X67468992Y-94502490D03*
D25*
X263628511Y-52995469D03*
D26*
X256008511Y-52995469D03*
D25*
X132238992Y-71832990D03*
D26*
X124618992Y-71832990D03*
D25*
X320778511Y-75664969D03*
D26*
X313158511Y-75664969D03*
D25*
X75088992Y-113552490D03*
D26*
X67468992Y-113552490D03*
D25*
X141763992Y-131200000D03*
D26*
X134143992Y-131200000D03*
M02*
